HIERARCHY
ROOT root
{
	OFFSET	0	13.1	24.9
	CHANNELS 6  Xposition Yposition Zposition Xrotation Yrotation Zrotation
	JOINT spine_1
	{
		OFFSET	0	9.99999	0
		CHANNELS 3  Xrotation Yrotation Zrotation
		JOINT spine_2
		{
			OFFSET	0	112	-10
			CHANNELS 3  Xrotation Yrotation Zrotation
			JOINT spine_3
			{
				OFFSET	0	206.5	19.3
				CHANNELS 3  Xrotation Yrotation Zrotation
				JOINT spine_4
				{
					OFFSET	0	110.4	14.6
					CHANNELS 3  Xrotation Yrotation Zrotation
					JOINT neck_1
					{
						OFFSET	0	71.8	-50.3
						CHANNELS 3  Xrotation Yrotation Zrotation
						JOINT neck_2
						{
							OFFSET	0	86.2	-25.8
							CHANNELS 3  Xrotation Yrotation Zrotation
							JOINT head_ee
							{
								OFFSET	0	179.8	-8.7
								CHANNELS 3  Xrotation Yrotation Zrotation
								End Site
								{
									OFFSET	1	0	0
								}
							}
						}
					}
					JOINT left_clavicle
					{
						OFFSET	-43.2	22.4	-70.8
						CHANNELS 3  Xrotation Yrotation Zrotation
						JOINT left_shoulder
						{
							OFFSET	-93.9	-5.79999	48.7
							CHANNELS 3  Xrotation Yrotation Zrotation
							JOINT left_elbow
							{
								OFFSET	-291.4	-30.8	15.2
								CHANNELS 3  Xrotation Yrotation Zrotation
								JOINT left_lowarm_twist
								{
									OFFSET	-110.7	-3.89999	13.6
									CHANNELS 3  Xrotation Yrotation Zrotation
									JOINT left_hand
									{
										OFFSET	-110.7	-3.89999	13.6
										CHANNELS 3  Xrotation Yrotation Zrotation
										JOINT left_ee
										{
											OFFSET	-80.8	-5.10001	12.1
											CHANNELS 3  Xrotation Yrotation Zrotation
											End Site
											{
												OFFSET	1	0	0
											}
										}
									}
								}
							}
						}
					}
					JOINT right_clavicle
					{
						OFFSET	43.2	22.4	-70.8
						CHANNELS 3  Xrotation Yrotation Zrotation
						JOINT right_shoulder
						{
							OFFSET	93.9	-5.79999	48.7
							CHANNELS 3  Xrotation Yrotation Zrotation
							JOINT right_elbow
							{
								OFFSET	291.4	-30.8	15.2
								CHANNELS 3  Xrotation Yrotation Zrotation
								JOINT right_lowarm_twist
								{
									OFFSET	110.7	-3.89999	13.6
									CHANNELS 3  Xrotation Yrotation Zrotation
									JOINT right_hand
									{
										OFFSET	110.7	-3.89999	13.6
										CHANNELS 3  Xrotation Yrotation Zrotation
										JOINT right_ee
										{
											OFFSET	80.8	-5.10001	12.1
											CHANNELS 3  Xrotation Yrotation Zrotation
											End Site
											{
												OFFSET	1	0	0
											}
										}
									}
								}
							}
						}
					}
				}
			}
		}
	}
	JOINT left_hip
	{
		OFFSET	-82.8	-127.5	0.300001
		CHANNELS 3  Xrotation Yrotation Zrotation
		JOINT left_knee
		{
			OFFSET	-28.2	-396.7	2.2
			CHANNELS 3  Xrotation Yrotation Zrotation
			JOINT left_ankle
			{
				OFFSET	-11.7	-411.3	35.4
				CHANNELS 3  Xrotation Yrotation Zrotation
				JOINT left_toes
				{
					OFFSET	0	-60	-88.6
					CHANNELS 3  Xrotation Yrotation Zrotation
					JOINT left_foot_ee
					{
						OFFSET	-22.5	-16.5	-42.2
						CHANNELS 3  Xrotation Yrotation Zrotation
						End Site
						{
							OFFSET	1	0	0
						}
					}
				}
			}
		}
	}
	JOINT right_hip
	{
		OFFSET	82.8	-127.5	0.300001
		CHANNELS 3  Xrotation Yrotation Zrotation
		JOINT right_knee
		{
			OFFSET	28.2	-396.7	2.2
			CHANNELS 3  Xrotation Yrotation Zrotation
			JOINT right_ankle
			{
				OFFSET	11.7	-411.3	35.4
				CHANNELS 3  Xrotation Yrotation Zrotation
				JOINT right_toes
				{
					OFFSET	0	-60	-88.6
					CHANNELS 3  Xrotation Yrotation Zrotation
					JOINT right_foot_ee
					{
						OFFSET	22.5	-16.5	-42.2
						CHANNELS 3  Xrotation Yrotation Zrotation
						End Site
						{
							OFFSET	1	0	0
						}
					}
				}
			}
		}
	}
}
MOTION
Frames: 11
Frame Time: 0.02
3631.33 621.143 -565.733 -34.3532 49.9759 28.0391 6.76415 0.210778 0.222851 6.76415 0.196171 0.235812 6.76494 0.173252 0.253128 6.76492 0.211055 0.222589 -16.0839 2.46749 1.94496 -16.0856 3.61079 2.6891 -0.0 0.0 -0.0 5.34995 10.9324 10.4507 -31.1054 3.98168 69.2001 0.189565 -5.36476 0.0088812 -20.8606 -1.18161 2.3766 2.90749 10.3667 23.6156 -0.0 0.0 -0.0 12.82 23.2753 -25.5522 -14.4597 -3.09411 -50.9895 1.88731 43.0692 -0.744805 -58.2902 5.07091 -5.04478 -5.05749 1.06412 36.8629 0.0 0.0 0.0 51.6179 -2.32196 -1.89467 -13.8636 0.318261 2.09857 8.47632 21.0825 -1.24335 -8.78258 0.0 0.0 -0.0 0.0 -0.0 10.6988 -13.2135 3.33392 -10.1148 -0.282499 -1.52459 41.4772 -25.7949 5.33504 12.1098 -0.0 -0.0 0.0 0.0 0.0 
3608.56 620.212 -567.083 -33.5105 49.9022 27.6363 6.62344 0.04271 0.115081 6.62345 0.0353006 0.117565 6.62351 0.0238507 0.120411 6.62349 0.0425681 0.115134 -14.9938 2.61584 1.40399 -15.0029 4.16848 2.19103 -0.0 0.0 -0.0 5.974 10.5758 11.5453 -28.1271 4.3269 68.3002 0.18856 -5.33647 0.00878749 -19.629 -1.08835 2.24937 2.7378 11.4178 22.769 -0.0 0.0 -0.0 12.6205 23.8923 -25.0301 -14.6858 -2.07867 -50.4544 1.94618 43.9476 -0.785336 -60.0298 5.28646 -5.10211 -4.63459 1.90525 33.8668 0.0 0.0 0.0 51.5961 -2.52251 -1.89764 -16.6261 0.320551 2.52237 10.0381 21.4974 -1.4678 -9.03228 0.0 0.0 -0.0 0.0 -0.0 10.2553 -11.6215 4.29123 -13.5666 -0.316798 -2.05302 38.441 -26.4197 5.06201 12.6161 -0.0 -0.0 0.0 0.0 0.0 
3591.6 620.268 -568.806 -32.792 49.8755 27.1852 6.49807 -0.0496592 0.047214 6.49807 -0.0525629 0.0439584 6.49803 -0.056625 0.0385851 6.49803 -0.0498206 0.0470437 -14.2646 3.03228 1.21931 -14.28 5.04913 2.1218 -0.0 0.0 -0.0 6.22177 11.1683 11.9644 -28.2073 5.05913 67.6597 0.18753 -5.3075 0.00869197 -18.908 -1.03504 2.17399 2.60046 12.1496 22.0535 -0.0 0.0 -0.0 12.4946 24.1006 -24.7189 -15.4591 -1.55797 -50.9975 1.90593 43.3497 -0.75755 -61.7942 5.5067 -5.15352 -4.32373 2.51033 31.7164 0.0 0.0 0.0 50.9867 -2.48334 -1.29567 -19.4937 0.301319 2.96188 12.3803 21.6939 -1.79783 -9.06322 0.0 0.0 -0.0 0.0 -0.0 10.429 -10.3636 4.05339 -15.9694 -0.321858 -2.42162 35.0062 -26.0606 4.6938 12.6972 -0.0 -0.0 0.0 0.0 0.0 
3565.73 615.004 -568.265 -31.278 48.4403 25.3186 6.38167 0.180069 0.184617 6.38167 0.167956 0.195701 6.38224 0.147504 0.211544 6.38222 0.179062 0.185594 -14.4496 4.59128 0.501497 -14.5061 8.46649 1.95657 -0.0 0.0 -0.0 6.26607 11.133 12.0428 -27.0385 5.56647 67.0227 0.193903 -5.48678 0.00929141 -17.8644 -0.959565 2.0637 2.29162 16.2575 21.2375 -0.0 0.0 -0.0 13.0514 25.1015 -25.8988 -15.2242 -4.20451 -50.9535 1.87844 42.9346 -0.738757 -65.3233 5.95123 -5.23583 -4.12737 3.6064 30.7631 0.0 0.0 0.0 51.1087 -2.306 -0.665402 -24.4506 0.216322 3.71753 19.9253 23.3098 -2.83329 -11.4547 0.0 0.0 -0.0 0.0 -0.0 10.8217 -3.97614 5.14397 -19.9943 -0.295707 -3.03849 32.8413 -28.5075 4.53237 13.8427 -0.0 -0.0 0.0 0.0 0.0 
3550.56 616.473 -572.959 -30.5553 47.9395 24.7302 6.31634 0.175555 0.304498 6.31638 0.155824 0.315052 6.31718 0.123101 0.329219 6.31708 0.17355 0.305646 -14.287 5.82992 0.729673 -14.3752 10.6886 2.56184 -0.0 0.0 -0.0 6.62987 11.3289 12.6722 -25.1014 5.93365 66.8805 0.251422 -7.09962 0.015597 -17.1318 -0.907799 1.98548 1.76553 20.569 19.0993 -0.0 0.0 -0.0 13.3994 25.6023 -26.6494 -15.4575 -6.29917 -51.2102 1.81049 41.8839 -0.692928 -68.5715 6.36387 -5.28715 -3.88761 5.12839 29.6877 0.0 0.0 0.0 50.9199 -2.39979 -0.81117 -26.7504 0.154751 4.06508 25.9718 25.8106 -3.64536 -14.0591 0.0 0.0 -0.0 0.0 -0.0 11.0426 1.45728 5.91037 -23.4277 -0.239212 -3.56223 31.0904 -27.274 4.29377 14.5883 -0.0 -0.0 0.0 0.0 0.0 
3529.19 625.174 -582.687 -28.5842 49.0166 22.5124 5.85058 -0.0822642 0.501613 5.85071 -0.114016 0.495362 5.84959 -0.167549 0.479907 5.84928 -0.0896552 0.500345 -13.9279 6.32619 2.26178 -13.9982 10.6846 4.13561 -0.0 0.0 -0.0 6.33717 9.51289 12.2128 -20.7486 6.95085 67.42 0.264622 -7.46826 0.0172706 -16.3819 -0.855851 1.90474 1.48921 24.4602 18.5069 -0.0 0.0 -0.0 13.6726 26.3939 -27.1895 -15.9291 -7.80627 -53.605 1.69054 39.941 -0.614361 -73.0873 6.94043 -5.31927 -3.85117 6.34439 30.0208 0.0 0.0 0.0 48.8893 -0.130125 0.246593 -28.726 0.0907525 4.36149 30.2231 26.6436 -4.17546 -15.5674 0.0 0.0 -0.0 0.0 -0.0 11.2735 5.92871 5.50705 -28.465 -0.0997931 -4.32246 30.5479 -26.7621 4.21648 15.9091 -0.0 -0.0 0.0 0.0 0.0 
3504.88 627.019 -591.675 -27.9128 50.3664 21.8321 5.53329 -0.127515 0.608445 5.53348 -0.165972 0.599099 5.53157 -0.233753 0.576044 5.53114 -0.139846 0.60573 -14.0139 6.29778 3.76298 -14.0442 9.72078 5.55268 -0.0 0.0 -0.0 5.64762 8.93516 10.9907 -18.8434 6.96679 68.1267 0.281771 -7.94626 0.0195706 -16.3947 -0.856726 1.90612 1.2561 26.3203 17.6402 -0.0 0.0 -0.0 13.6402 26.3314 -27.1219 -14.4955 -8.61251 -55.4122 1.48347 36.3086 -0.486452 -76.1585 7.33281 -5.31495 -3.78259 6.237 29.4347 0.0 0.0 0.0 47.2429 1.55034 1.39295 -30.1448 0.0384943 4.57296 33.1582 26.6376 -4.50949 -16.4932 0.0 0.0 -0.0 0.0 -0.0 13.2195 9.79524 3.90947 -37.1671 0.296448 -5.5976 30.2701 -26.9078 4.18817 17.531 -0.0 -0.0 0.0 0.0 0.0 
3493.95 631.845 -595.722 -29.2094 50.5857 22.7792 5.6082 -0.0589881 0.650186 5.60843 -0.100241 0.645115 5.60707 -0.172916 0.629541 5.60653 -0.0713236 0.648948 -13.9468 6.00012 4.26653 -13.9527 8.83801 5.92834 -0.0 0.0 -0.0 5.38817 6.98858 10.5258 -14.0399 7.39025 67.0602 0.262523 -7.40968 0.0169989 -15.9772 -0.828259 1.86089 1.0647 28.2984 17.0884 -0.0 0.0 -0.0 13.3467 26.0644 -26.4723 -13.7058 -9.38071 -57.0501 1.31336 33.0465 -0.389631 -78.7681 7.66535 -5.29464 -3.73377 6.14981 29.0142 0.0 0.0 0.0 46.0258 3.14273 1.5294 -28.7667 0.0893257 4.36758 35.2009 26.636 -4.73248 -17.2348 0.0 0.0 -0.0 0.0 -0.0 15.4722 12.1862 4.58272 -41.1091 0.538829 -6.15283 27.5059 -26.9972 3.86109 18.0952 -0.0 -0.0 0.0 0.0 0.0 
3472.22 629.218 -601.964 -29.3706 50.3737 22.769 5.65544 0.143894 0.787252 5.65578 0.0935092 0.794812 5.65672 0.00327183 0.800287 5.65585 0.129617 0.789728 -12.6474 5.70222 3.2007 -12.6655 8.81075 4.72583 -0.0 0.0 -0.0 5.17133 6.62924 10.1273 -10.261 6.74285 68.7219 0.223948 -6.33051 0.0123844 -14.2412 -0.713449 1.67064 0.311953 29.0478 13.0798 -0.0 0.0 -0.0 11.5276 27.1475 -22.1736 -15.5715 -11.1179 -62.9472 1.30207 32.8207 -0.383489 -80.0968 7.83412 -5.27843 -3.85649 4.7147 29.2348 0.0 0.0 0.0 43.3622 7.24589 1.71109 -25.2634 0.196158 3.84063 37.6169 24.0266 -4.90414 -19.2555 0.0 0.0 -0.0 0.0 -0.0 16.8431 14.2196 4.40964 -43.5803 0.710113 -6.49207 22.3978 -27.6732 3.23268 20.7363 -0.0 -0.0 0.0 0.0 0.0 
3451.88 629.618 -612.555 -30.5249 50.4088 23.882 5.8425 0.399102 0.753113 5.84275 0.350372 0.776981 5.8472 0.26323 0.810658 5.84649 0.387951 0.758917 -11.2847 5.39701 3.75126 -11.2737 7.75135 5.07283 -0.0 0.0 -0.0 4.13439 6.12457 8.22242 -7.71334 6.23966 69.9166 0.248636 -7.02175 0.0152546 -13.417 -0.66098 1.57914 -0.120064 28.2086 10.404 -0.0 0.0 -0.0 10.8705 27.3613 -20.6645 -16.4767 -13.2961 -66.4219 1.12785 29.1912 -0.293699 -81.597 8.02407 -5.25539 -4.07117 2.7485 29.8661 0.0 0.0 0.0 41.7687 11.0932 1.22899 -22.9254 0.249437 3.48583 41.5117 21.2393 -5.19742 -22.1004 0.0 0.0 -0.0 0.0 -0.0 17.3799 15.6339 4.30282 -42.1683 0.610446 -6.29913 13.8735 -28.6859 2.08306 22.8037 -0.0 -0.0 0.0 0.0 0.0 
3427.93 628.793 -619.288 -32.1467 50.8415 24.8635 6.1777 0.339444 0.769746 6.17798 0.289776 0.789784 6.18161 0.206354 0.815564 6.18083 0.332564 0.772743 -10.6664 5.21236 3.20633 -10.6621 7.70494 4.45994 -0.0 0.0 -0.0 3.28378 7.42821 6.73648 -6.05507 5.04348 71.8408 0.289879 -8.17186 0.0207073 -12.0507 -0.576924 1.42584 -0.527939 25.9011 7.26706 -0.0 0.0 -0.0 10.42 27.4828 -19.6388 -16.3348 -14.9523 -68.5788 0.954549 25.307 -0.214307 -83.8641 8.30965 -5.21107 -4.21453 1.55142 30.3305 0.0 0.0 0.0 40.6533 15.8937 1.07648 -22.8935 0.250065 3.48096 42.022 17.7571 -5.16037 -21.4259 0.0 0.0 -0.0 0.0 -0.0 18.9767 15.6778 2.15721 -45.9316 0.886588 -6.80785 6.9608 -29.2136 1.07139 27.8539 -0.0 -0.0 0.0 0.0 0.0 
